<svg xmlns="http://www.w3.org/2000/svg" width="145" height="32.53" viewBox="0 0 145 32.53"><defs><style>.cls-1{fill:#fff;}.cls-2{fill:#c0d62d;}</style></defs><title>logo-auna</title><g id="Capa_2" data-name="Capa 2"><g id="Capa_2-2" data-name="Capa 2"><path class="cls-1" d="M58.12,29.26c-3.71,3.92-8,3.81-12.39,2.13s-6.37-5.15-6.58-9.67C38.85,15.14,39.09,8.56,39,2c0-.65.13-1,.92-1,2.43.05,4.87.05,7.3,0,.92,0,.91.46.91,1.12q0,7.95,0,15.9c0,.38,0,.77,0,1.15.14,2.74,1.45,4.29,3.87,4.61,2.89.38,4.9-.75,5.66-3.37a1.38,1.38,0,0,1,1.66-1.21c1.62.08,3.25,0,4.87.05a5.89,5.89,0,0,1,6,6.13c0,1.71,0,3.42,0,5.13,0,.75-.24.93-.95.92-3.25,0-6.5-.08-9.74,0-1.21,0-1.61-.34-1.43-1.48A5.78,5.78,0,0,0,58.12,29.26Z"/><path class="cls-1" d="M88.47,3.12c4.23-3.51,9.84-4,14-1.25A10.25,10.25,0,0,1,107.38,10c.43,6.87.12,13.75.19,20.62,0,.82-.44.75-1,.75-2.35,0-4.7,0-7,0-.9,0-1.14-.22-1.14-1.13,0-5.21,0-10.42,0-15.63,0-.43,0-.85,0-1.28-.17-2.89-1.5-4.46-4-4.76a4.77,4.77,0,0,0-5.6,3.71c-.18.66-.41.89-1.09.88-1.88,0-3.76,0-5.64,0a5.87,5.87,0,0,1-5.7-5.65c-.06-1.88,0-3.76,0-5.64,0-.77.27-.9,1-.89,3.25,0,6.49.08,9.74,0,1.17,0,1.65.26,1.45,1.44A5,5,0,0,0,88.47,3.12Z"/><path class="cls-2" d="M88.47,25.34c0,1.71,0,3.42,0,5.13,0,.71-.19,1-.93,1-3.42,0-6.84,0-10.26,0-.85,0-1-.35-1-1.06,0-1.58,0-3.16,0-4.74a6,6,0,0,1,6.06-6.41c1.7-.08,3.42,0,5.12,0,.7,0,1,.23,1,1C88.44,21.92,88.47,23.63,88.47,25.34Z"/><path class="cls-2" d="M58.12,7c0-1.71,0-3.42,0-5.13,0-.76.27-.95,1-.94,3.42,0,6.83.07,10.25.06.7,0,1,.14,1,.89-.06,1.84,0,3.68,0,5.51a5.94,5.94,0,0,1-6,5.76c-1.62,0-3.25-.07-4.87,0-1.08.07-1.28-.37-1.24-1.31C58.17,10.3,58.12,8.67,58.12,7Z"/><path class="cls-1" d="M33.29,1.91c0-.67-.21-.89-.88-.88-1.71,0-3.42,0-5.13,0-2.93,0-2.93,0-3.2,3A9.3,9.3,0,0,0,18.36.36,14.35,14.35,0,0,0,4.88,4.14C.24,8.62-.77,14.29.51,20.33,2.74,30.81,12.08,33.82,19,31.92a9,9,0,0,0,5.17-3.7c0,1,0,1.7,0,2.38s.08.84.74.83c2.52,0,5,0,7.56,0,.61,0,.81-.18.8-.8Q33.26,16.27,33.29,1.91Zm-16.73,22a7.56,7.56,0,0,1-7.4-7.74,7.36,7.36,0,0,1,7.54-7.65,7.36,7.36,0,0,1,7.44,7.62C24.08,20.73,20.89,24,16.56,23.94Z"/><path class="cls-1" d="M145,1.91c0-.8-.29-.91-1-.9-1.71,0-3.42,0-5.13,0-.94,0-2.09-.3-2.75.14s-.12,1.74-.3,2.65c0,0,0,.05-.07.08-2.4-2.36-3.45-3.08-5.59-3.53a14.38,14.38,0,0,0-13.5,3.68c-4.4,4.17-5.58,9.48-4.64,15.27s3.79,10.12,9.4,12.1c5.25,1.85,10.3,1.68,14.43-3,0,.8,0,1.48,0,2.16s.13.83.78.83q3.78,0,7.56,0c.62,0,.78-.19.78-.81Q145,16.26,145,1.91Zm-16.6,22a7.56,7.56,0,0,1-7.5-7.64,7.5,7.5,0,1,1,15-.11A7.47,7.47,0,0,1,128.4,23.94Z"/></g></g></svg>