<?xml version="1.0"?>
<svg xmlns="http://www.w3.org/2000/svg" xmlns:xlink="http://www.w3.org/1999/xlink" version="1.1" viewBox="0 0 224 224" width="24px" height="24px"><g fill="none" fill-rule="nonzero" stroke="none" stroke-width="1" stroke-linecap="butt" stroke-linejoin="miter" stroke-miterlimit="10" stroke-dasharray="" stroke-dashoffset="0" font-family="none" font-weight="none" font-size="none" text-anchor="none" style="mix-blend-mode: normal"><path d="M0,224v-224h224v224z" fill="none"/><g fill="#1f7044"><path d="M112,28l-93.33333,18.66667v130.66667l93.33333,18.66667zM130.66667,46.66667v18.66667h18.66667v18.66667h-18.66667v18.66667h18.66667v18.66667h-18.66667v18.66667h18.66667v18.66667h-18.66667v18.66667h65.33333c5.152,0 9.33333,-4.18133 9.33333,-9.33333v-112c0,-5.152 -4.18133,-9.33333 -9.33333,-9.33333zM168,65.33333h18.66667v18.66667h-18.66667zM38.97396,77.4375h16.58854l8.6224,20.67188c0.7,1.68933 1.2269,3.64846 1.76823,5.86979h0.23698c0.308,-1.33467 0.93494,-3.37385 1.8776,-6.03385l9.60677,-20.50782h15.13021l-18.0651,34.25261l18.59375,34.87239h-16.13281l-10.39063,-22.53125c-0.392,-0.79333 -0.85692,-2.39064 -1.23958,-4.61197h-0.14583c-0.23333,1.064 -0.70365,2.65694 -1.40365,4.79427l-10.48177,22.34896h-16.20573l19.23177,-34.59896zM168,102.66667h18.66667v18.66667h-18.66667zM168,140h18.66667v18.66667h-18.66667z"/></g></g></svg>
